<?xml version="1.0" standalone="no"?>
<!DOCTYPE svg PUBLIC "-//W3C//DTD SVG 20010904//EN"
 "http://www.w3.org/TR/2001/REC-SVG-20010904/DTD/svg10.dtd">
<svg version="1.0" xmlns="http://www.w3.org/2000/svg"
 width="792.000000pt" height="792.000000pt" viewBox="0 0 792.000000 792.000000"
 preserveAspectRatio="xMidYMid meet">
<metadata>
Created by potrace 1.11, written by Peter Selinger 2001-2013
</metadata>
<g transform="translate(0.000000,792.000000) scale(0.100000,-0.100000)"
fill="#000000" stroke="none">
<path d="M3703 7083 c-48 -3 -65 -8 -73 -22 -10 -20 -10 -1925 1 -1935 3 -4
19 -2 35 5 113 43 98 43 1522 46 1274 3 1353 5 1347 21 -3 9 -22 60 -41 112
-20 52 -65 156 -100 230 -386 803 -1095 1345 -1983 1517 -122 23 -163 26 -391
28 -140 1 -283 0 -317 -2z"/>
<path d="M2935 6891 c-163 -67 -209 -90 -354 -176 -189 -112 -385 -268 -542
-433 -416 -433 -680 -976 -776 -1592 -25 -165 -25 -585 0 -760 79 -540 269
-981 598 -1390 494 -614 1271 -1009 1986 -1010 l152 0 3 917 c2 505 1 934 0
954 l-4 36 -96 6 c-204 14 -365 86 -523 235 -115 108 -200 248 -251 414 l-23
73 -3 1393 c-2 1091 -5 1392 -15 1391 -6 0 -75 -26 -152 -58z"/>
<path d="M4744 4618 c55 -193 56 -234 56 -1654 l0 -1304 28 6 c15 4 81 29 147
56 327 134 617 329 875 587 147 148 231 249 345 421 252 378 401 774 461 1220
19 139 24 460 11 603 l-9 87 -960 0 -960 0 6 -22z"/>
</g>
</svg>
